<svg width="135" height="16" viewBox="0 0 135 16" fill="none" xmlns="http://www.w3.org/2000/svg">
<circle cx="67.5" cy="8.25293" r="7.5" fill="#DDE0E4"/>
<circle cx="97.5" cy="8.25293" r="7.5" fill="#DDE0E4"/>
<circle cx="127.5" cy="8.25293" r="7.5" fill="#DDE0E4"/>
<path fill-rule="evenodd" clip-rule="evenodd" d="M7.55721 15.7527C7.53816 15.7529 7.51909 15.7529 7.5 15.7529C7.48091 15.7529 7.46184 15.7529 7.44279 15.7527H6.9469V15.7328C3.06303 15.4497 0 12.209 0 8.25293C0 4.29682 3.06303 1.05612 6.9469 0.773015V0.75293H7.5H37.0841V0.764267C37.2218 0.756742 37.3604 0.75293 37.5 0.75293C41.6421 0.75293 45 4.11079 45 8.25293C45 12.3951 41.6421 15.7529 37.5 15.7529C37.3604 15.7529 37.2218 15.7491 37.0841 15.7416V15.7527H7.55721Z" fill="#F53838"/>
</svg>
