<svg width="166" height="37" viewBox="0 0 166 37" fill="none" xmlns="http://www.w3.org/2000/svg">
<path d="M51.42 25.3162C50.18 25.3162 49.14 25.1362 48.3 24.7762C47.4733 24.4029 46.84 23.9229 46.4 23.3362C45.9733 22.7362 45.7467 22.1095 45.72 21.4562C45.72 21.3362 45.76 21.2362 45.84 21.1562C45.92 21.0762 46.02 21.0362 46.14 21.0362H47.92C48.0933 21.0362 48.22 21.0762 48.3 21.1562C48.3933 21.2229 48.4733 21.3095 48.54 21.4162C48.62 21.6695 48.7733 21.9229 49 22.1762C49.2267 22.4162 49.5333 22.6162 49.92 22.7762C50.32 22.9362 50.82 23.0162 51.42 23.0162C52.38 23.0162 53.0933 22.8562 53.56 22.5362C54.04 22.2162 54.28 21.7829 54.28 21.2362C54.28 20.8495 54.1533 20.5429 53.9 20.3162C53.6467 20.0762 53.2533 19.8629 52.72 19.6762C52.2 19.4762 51.5067 19.2695 50.64 19.0562C49.64 18.8162 48.8 18.5295 48.12 18.1962C47.4533 17.8495 46.9467 17.4162 46.6 16.8962C46.2667 16.3762 46.1 15.7162 46.1 14.9162C46.1 14.1429 46.3067 13.4562 46.72 12.8562C47.1467 12.2562 47.7467 11.7829 48.52 11.4362C49.3067 11.0895 50.24 10.9162 51.32 10.9162C52.1867 10.9162 52.9533 11.0362 53.62 11.2762C54.2867 11.5029 54.84 11.8095 55.28 12.1962C55.72 12.5695 56.0533 12.9762 56.28 13.4162C56.52 13.8429 56.6467 14.2629 56.66 14.6762C56.66 14.7829 56.62 14.8829 56.54 14.9762C56.4733 15.0562 56.3733 15.0962 56.24 15.0962H54.38C54.2733 15.0962 54.1667 15.0695 54.06 15.0162C53.9533 14.9629 53.8667 14.8629 53.8 14.7162C53.72 14.3029 53.46 13.9495 53.02 13.6562C52.58 13.3629 52.0133 13.2162 51.32 13.2162C50.6 13.2162 50.02 13.3495 49.58 13.6162C49.14 13.8829 48.92 14.2962 48.92 14.8562C48.92 15.2295 49.0267 15.5429 49.24 15.7962C49.4667 16.0362 49.82 16.2495 50.3 16.4362C50.7933 16.6229 51.44 16.8229 52.24 17.0362C53.3733 17.2895 54.3 17.5829 55.02 17.9162C55.74 18.2495 56.2667 18.6762 56.6 19.1962C56.9333 19.7029 57.1 20.3495 57.1 21.1362C57.1 22.0162 56.86 22.7695 56.38 23.3962C55.9133 24.0095 55.2533 24.4829 54.4 24.8162C53.5467 25.1495 52.5533 25.3162 51.42 25.3162ZM63.012 25.3162C62.1987 25.3162 61.492 25.1362 60.892 24.7762C60.3054 24.4029 59.852 23.8829 59.532 23.2162C59.212 22.5362 59.052 21.7362 59.052 20.8162V15.1962C59.052 15.0629 59.0987 14.9495 59.192 14.8562C59.2854 14.7629 59.3987 14.7162 59.532 14.7162H61.292C61.4387 14.7162 61.552 14.7629 61.632 14.8562C61.7254 14.9495 61.772 15.0629 61.772 15.1962V20.6962C61.772 22.3495 62.4987 23.1762 63.952 23.1762C64.6454 23.1762 65.192 22.9562 65.592 22.5162C66.0054 22.0762 66.212 21.4695 66.212 20.6962V15.1962C66.212 15.0629 66.2587 14.9495 66.352 14.8562C66.4454 14.7629 66.5587 14.7162 66.692 14.7162H68.452C68.5854 14.7162 68.6987 14.7629 68.792 14.8562C68.8854 14.9495 68.932 15.0629 68.932 15.1962V24.6362C68.932 24.7695 68.8854 24.8829 68.792 24.9762C68.6987 25.0695 68.5854 25.1162 68.452 25.1162H66.832C66.6854 25.1162 66.5654 25.0695 66.472 24.9762C66.392 24.8829 66.352 24.7695 66.352 24.6362V23.8162C65.992 24.2829 65.5454 24.6495 65.012 24.9162C64.4787 25.1829 63.812 25.3162 63.012 25.3162ZM72.0739 28.9162C71.9406 28.9162 71.8272 28.8695 71.7339 28.7762C71.6406 28.6829 71.5939 28.5695 71.5939 28.4362V15.1962C71.5939 15.0629 71.6406 14.9495 71.7339 14.8562C71.8272 14.7629 71.9406 14.7162 72.0739 14.7162H73.6539C73.8006 14.7162 73.9139 14.7629 73.9939 14.8562C74.0872 14.9495 74.1339 15.0629 74.1339 15.1962V15.9962C74.4539 15.5695 74.8739 15.2162 75.3939 14.9362C75.9139 14.6562 76.5606 14.5162 77.3339 14.5162C78.0406 14.5162 78.6539 14.6295 79.1739 14.8562C79.6939 15.0829 80.1272 15.4095 80.4739 15.8362C80.8206 16.2495 81.0872 16.7429 81.2739 17.3162C81.4606 17.8895 81.5672 18.5229 81.5939 19.2162C81.6072 19.4429 81.6139 19.6762 81.6139 19.9162C81.6139 20.1562 81.6072 20.3962 81.5939 20.6362C81.5806 21.3029 81.4806 21.9229 81.2939 22.4962C81.1072 23.0562 80.8339 23.5495 80.4739 23.9762C80.1272 24.3895 79.6939 24.7162 79.1739 24.9562C78.6539 25.1962 78.0406 25.3162 77.3339 25.3162C76.6139 25.3162 76.0006 25.1895 75.4939 24.9362C74.9872 24.6695 74.5739 24.3229 74.2539 23.8962V28.4362C74.2539 28.5695 74.2072 28.6829 74.1139 28.7762C74.0339 28.8695 73.9206 28.9162 73.7739 28.9162H72.0739ZM76.5939 23.1762C77.1672 23.1762 77.6139 23.0562 77.9339 22.8162C78.2539 22.5629 78.4806 22.2362 78.6139 21.8362C78.7606 21.4362 78.8472 20.9962 78.8739 20.5162C78.9006 20.1162 78.9006 19.7162 78.8739 19.3162C78.8472 18.8362 78.7606 18.3962 78.6139 17.9962C78.4806 17.5962 78.2539 17.2762 77.9339 17.0362C77.6139 16.7829 77.1672 16.6562 76.5939 16.6562C76.0472 16.6562 75.6006 16.7829 75.2539 17.0362C74.9206 17.2895 74.6739 17.6162 74.5139 18.0162C74.3672 18.4029 74.2806 18.8029 74.2539 19.2162C74.2406 19.4562 74.2339 19.7095 74.2339 19.9762C74.2339 20.2429 74.2406 20.5029 74.2539 20.7562C74.2672 21.1562 74.3606 21.5429 74.5339 21.9162C74.7072 22.2762 74.9606 22.5762 75.2939 22.8162C75.6272 23.0562 76.0606 23.1762 76.5939 23.1762ZM84.3591 28.9162C84.2257 28.9162 84.1124 28.8695 84.0191 28.7762C83.9257 28.6829 83.8791 28.5695 83.8791 28.4362V15.1962C83.8791 15.0629 83.9257 14.9495 84.0191 14.8562C84.1124 14.7629 84.2257 14.7162 84.3591 14.7162H85.9391C86.0857 14.7162 86.1991 14.7629 86.2791 14.8562C86.3724 14.9495 86.4191 15.0629 86.4191 15.1962V15.9962C86.7391 15.5695 87.1591 15.2162 87.6791 14.9362C88.1991 14.6562 88.8457 14.5162 89.6191 14.5162C90.3257 14.5162 90.9391 14.6295 91.4591 14.8562C91.9791 15.0829 92.4124 15.4095 92.7591 15.8362C93.1057 16.2495 93.3724 16.7429 93.5591 17.3162C93.7457 17.8895 93.8524 18.5229 93.8791 19.2162C93.8924 19.4429 93.8991 19.6762 93.8991 19.9162C93.8991 20.1562 93.8924 20.3962 93.8791 20.6362C93.8657 21.3029 93.7657 21.9229 93.5791 22.4962C93.3924 23.0562 93.1191 23.5495 92.7591 23.9762C92.4124 24.3895 91.9791 24.7162 91.4591 24.9562C90.9391 25.1962 90.3257 25.3162 89.6191 25.3162C88.8991 25.3162 88.2857 25.1895 87.7791 24.9362C87.2724 24.6695 86.8591 24.3229 86.5391 23.8962V28.4362C86.5391 28.5695 86.4924 28.6829 86.3991 28.7762C86.3191 28.8695 86.2057 28.9162 86.0591 28.9162H84.3591ZM88.8791 23.1762C89.4524 23.1762 89.8991 23.0562 90.2191 22.8162C90.5391 22.5629 90.7657 22.2362 90.8991 21.8362C91.0457 21.4362 91.1324 20.9962 91.1591 20.5162C91.1857 20.1162 91.1857 19.7162 91.1591 19.3162C91.1324 18.8362 91.0457 18.3962 90.8991 17.9962C90.7657 17.5962 90.5391 17.2762 90.2191 17.0362C89.8991 16.7829 89.4524 16.6562 88.8791 16.6562C88.3324 16.6562 87.8857 16.7829 87.5391 17.0362C87.2057 17.2895 86.9591 17.6162 86.7991 18.0162C86.6524 18.4029 86.5657 18.8029 86.5391 19.2162C86.5257 19.4562 86.5191 19.7095 86.5191 19.9762C86.5191 20.2429 86.5257 20.5029 86.5391 20.7562C86.5524 21.1562 86.6457 21.5429 86.8191 21.9162C86.9924 22.2762 87.2457 22.5762 87.5791 22.8162C87.9124 23.0562 88.3457 23.1762 88.8791 23.1762ZM100.744 25.3162C99.6776 25.3162 98.7776 25.1295 98.0442 24.7562C97.3242 24.3829 96.7709 23.8562 96.3842 23.1762C96.0109 22.4962 95.7976 21.7029 95.7442 20.7962C95.7309 20.5562 95.7242 20.2629 95.7242 19.9162C95.7242 19.5695 95.7309 19.2762 95.7442 19.0362C95.7976 18.1162 96.0176 17.3229 96.4042 16.6562C96.8042 15.9762 97.3642 15.4495 98.0842 15.0762C98.8176 14.7029 99.7042 14.5162 100.744 14.5162C101.784 14.5162 102.664 14.7029 103.384 15.0762C104.118 15.4495 104.678 15.9762 105.064 16.6562C105.464 17.3229 105.691 18.1162 105.744 19.0362C105.758 19.2762 105.764 19.5695 105.764 19.9162C105.764 20.2629 105.758 20.5562 105.744 20.7962C105.691 21.7029 105.471 22.4962 105.084 23.1762C104.711 23.8562 104.158 24.3829 103.424 24.7562C102.704 25.1295 101.811 25.3162 100.744 25.3162ZM100.744 23.3362C101.451 23.3362 101.998 23.1162 102.384 22.6762C102.771 22.2229 102.984 21.5629 103.024 20.6962C103.038 20.4962 103.044 20.2362 103.044 19.9162C103.044 19.5962 103.038 19.3362 103.024 19.1362C102.984 18.2829 102.771 17.6295 102.384 17.1762C101.998 16.7229 101.451 16.4962 100.744 16.4962C100.038 16.4962 99.4909 16.7229 99.1042 17.1762C98.7176 17.6295 98.5042 18.2829 98.4642 19.1362C98.4509 19.3362 98.4442 19.5962 98.4442 19.9162C98.4442 20.2362 98.4509 20.4962 98.4642 20.6962C98.5042 21.5629 98.7176 22.2229 99.1042 22.6762C99.4909 23.1162 100.038 23.3362 100.744 23.3362ZM108.46 25.1162C108.327 25.1162 108.213 25.0695 108.12 24.9762C108.027 24.8829 107.98 24.7695 107.98 24.6362V15.2162C107.98 15.0695 108.027 14.9495 108.12 14.8562C108.213 14.7629 108.327 14.7162 108.46 14.7162H110.08C110.213 14.7162 110.327 14.7629 110.42 14.8562C110.527 14.9495 110.58 15.0695 110.58 15.2162V16.0362C110.887 15.6095 111.28 15.2829 111.76 15.0562C112.253 14.8295 112.82 14.7162 113.46 14.7162H114.28C114.427 14.7162 114.54 14.7629 114.62 14.8562C114.713 14.9495 114.76 15.0629 114.76 15.1962V16.6362C114.76 16.7695 114.713 16.8829 114.62 16.9762C114.54 17.0695 114.427 17.1162 114.28 17.1162H112.72C112.08 17.1162 111.58 17.2962 111.22 17.6562C110.873 18.0162 110.7 18.5095 110.7 19.1362V24.6362C110.7 24.7695 110.653 24.8829 110.56 24.9762C110.467 25.0695 110.347 25.1162 110.2 25.1162H108.46ZM121.02 25.1162C120.22 25.1162 119.547 24.9762 119 24.6962C118.453 24.4162 118.047 24.0029 117.78 23.4562C117.513 22.8962 117.38 22.2029 117.38 21.3762V16.8362H115.8C115.667 16.8362 115.553 16.7895 115.46 16.6962C115.367 16.6029 115.32 16.4895 115.32 16.3562V15.1962C115.32 15.0629 115.367 14.9495 115.46 14.8562C115.553 14.7629 115.667 14.7162 115.8 14.7162H117.38V11.3962C117.38 11.2629 117.42 11.1495 117.5 11.0562C117.593 10.9629 117.713 10.9162 117.86 10.9162H119.48C119.613 10.9162 119.727 10.9629 119.82 11.0562C119.913 11.1495 119.96 11.2629 119.96 11.3962V14.7162H122.46C122.593 14.7162 122.707 14.7629 122.8 14.8562C122.893 14.9495 122.94 15.0629 122.94 15.1962V16.3562C122.94 16.4895 122.893 16.6029 122.8 16.6962C122.707 16.7895 122.593 16.8362 122.46 16.8362H119.96V21.1762C119.96 21.7229 120.053 22.1495 120.24 22.4562C120.44 22.7629 120.78 22.9162 121.26 22.9162H122.64C122.773 22.9162 122.887 22.9629 122.98 23.0562C123.073 23.1495 123.12 23.2629 123.12 23.3962V24.6362C123.12 24.7695 123.073 24.8829 122.98 24.9762C122.887 25.0695 122.773 25.1162 122.64 25.1162H121.02ZM128.974 25.1162C128.748 25.1162 128.568 25.0562 128.434 24.9362C128.301 24.8162 128.208 24.6762 128.154 24.5162L124.074 11.7162C124.048 11.6495 124.034 11.5895 124.034 11.5362C124.034 11.4295 124.074 11.3362 124.154 11.2562C124.248 11.1629 124.354 11.1162 124.474 11.1162H126.954C127.168 11.1162 127.334 11.1762 127.454 11.2962C127.574 11.4162 127.648 11.5295 127.674 11.6362L130.494 20.8762L133.334 11.6362C133.374 11.5295 133.448 11.4162 133.554 11.2962C133.674 11.1762 133.841 11.1162 134.054 11.1162H136.534C136.654 11.1162 136.754 11.1629 136.834 11.2562C136.928 11.3362 136.974 11.4295 136.974 11.5362C136.974 11.5895 136.961 11.6495 136.934 11.7162L132.854 24.5162C132.801 24.6762 132.708 24.8162 132.574 24.9362C132.454 25.0562 132.274 25.1162 132.034 25.1162H128.974ZM139.341 25.1162C139.195 25.1162 139.075 25.0695 138.981 24.9762C138.888 24.8829 138.841 24.7629 138.841 24.6162V11.6162C138.841 11.4695 138.888 11.3495 138.981 11.2562C139.075 11.1629 139.195 11.1162 139.341 11.1162H144.941C146.048 11.1162 147.008 11.2895 147.821 11.6362C148.648 11.9695 149.288 12.4762 149.741 13.1562C150.208 13.8362 150.441 14.6962 150.441 15.7362C150.441 16.7629 150.208 17.6095 149.741 18.2762C149.288 18.9429 148.648 19.4362 147.821 19.7562C147.008 20.0762 146.048 20.2362 144.941 20.2362H142.561V24.6162C142.561 24.7629 142.508 24.8829 142.401 24.9762C142.308 25.0695 142.188 25.1162 142.041 25.1162H139.341ZM142.501 17.4762H144.841C145.415 17.4762 145.868 17.3295 146.201 17.0362C146.548 16.7429 146.721 16.2962 146.721 15.6962C146.721 15.1895 146.575 14.7629 146.281 14.4162C145.988 14.0695 145.508 13.8962 144.841 13.8962H142.501V17.4762ZM152.857 25.1162C152.71 25.1162 152.59 25.0695 152.497 24.9762C152.404 24.8829 152.357 24.7629 152.357 24.6162V11.6162C152.357 11.4695 152.404 11.3495 152.497 11.2562C152.59 11.1629 152.71 11.1162 152.857 11.1162H154.977C155.204 11.1162 155.364 11.1695 155.457 11.2762C155.564 11.3695 155.63 11.4429 155.657 11.4962L160.537 19.1962V11.6162C160.537 11.4695 160.584 11.3495 160.677 11.2562C160.77 11.1629 160.89 11.1162 161.037 11.1162H163.437C163.584 11.1162 163.704 11.1629 163.797 11.2562C163.89 11.3495 163.937 11.4695 163.937 11.6162V24.6162C163.937 24.7495 163.89 24.8695 163.797 24.9762C163.704 25.0695 163.584 25.1162 163.437 25.1162H161.297C161.084 25.1162 160.924 25.0629 160.817 24.9562C160.724 24.8495 160.664 24.7762 160.637 24.7362L155.757 17.3362V24.6162C155.757 24.7629 155.71 24.8829 155.617 24.9762C155.524 25.0695 155.404 25.1162 155.257 25.1162H152.857Z" fill="#0B132A"/>
<path d="M31.1473 13.6477L31.1255 13.626C31.1238 13.6247 31.1224 13.6231 31.1215 13.6212L17.5006 0L3.87983 13.6209C3.87826 13.6225 3.8758 13.6256 3.8758 13.6256L3.85333 13.6474C1.77053 15.7419 0.447586 18.4725 0.0948177 21.4052C-0.25795 24.3379 0.379698 27.3044 1.90639 29.8331C3.43309 32.3619 5.76122 34.3077 8.52069 35.3612C11.2802 36.4147 14.3126 36.5157 17.136 35.6477C17.3735 35.5751 17.6275 35.5751 17.8651 35.6477C20.6882 36.5153 23.7205 36.4144 26.4798 35.3607C29.2391 34.307 31.567 32.3613 33.0936 29.8328C34.6202 27.3042 35.2579 24.3379 34.9053 21.4054C34.5526 18.4728 33.2299 15.7422 31.1473 13.6477ZM8.7232 22.6298C8.65689 22.6961 8.6043 22.7749 8.56844 22.8615C8.53257 22.948 8.5141 23.0408 8.51412 23.1346C8.53835 25.5386 9.21776 27.8904 10.4792 29.9371C10.5079 29.9835 10.5211 30.0379 10.517 30.0922C10.513 30.1465 10.4918 30.1982 10.4566 30.2399C10.4213 30.2816 10.3738 30.311 10.3209 30.324C10.2679 30.337 10.2122 30.333 10.1616 30.3124C9.21332 29.9135 8.35182 29.3336 7.62531 28.6053C6.13646 27.1162 5.29946 25.097 5.2981 22.9912C5.29675 20.8855 6.13117 18.8652 7.61812 17.3743L17.5006 7.49273L27.3826 17.3743C28.8698 18.865 29.7045 20.8853 29.703 22.9912C29.7018 25.097 28.8647 27.1162 27.3757 28.6053C26.6492 29.3336 25.7877 29.9135 24.8396 30.3124C24.7889 30.333 24.7332 30.337 24.6802 30.324C24.6273 30.311 24.5798 30.2814 24.5445 30.2399C24.5093 30.1982 24.488 30.1465 24.484 30.092C24.4799 30.0377 24.4931 29.9833 24.5218 29.9369C25.7835 27.8904 26.4633 25.5386 26.4879 23.1346C26.4879 23.0408 26.4692 22.948 26.4332 22.8613C26.3971 22.7746 26.3444 22.696 26.2779 22.6296L21.6037 17.6717C21.5571 17.6329 21.4985 17.6116 21.4378 17.6116C21.3773 17.6116 21.3186 17.6329 21.2721 17.6717C21.2255 17.7104 21.1942 17.7644 21.1833 17.824C21.1724 17.8837 21.1828 17.945 21.2127 17.9978C23.0281 21.283 21.467 26.0017 18.8637 28.6053L18.85 28.6191C18.4907 28.9745 18.0056 29.1738 17.5002 29.1736C16.9948 29.1734 16.5098 28.9738 16.1508 28.6182L16.1382 28.6053C13.5339 26.0017 11.9736 21.2835 13.7893 17.9985C13.8192 17.9457 13.8296 17.8844 13.8187 17.8247C13.8079 17.7651 13.7764 17.7111 13.7299 17.6724C13.6834 17.6336 13.6247 17.6123 13.5642 17.6123C13.5036 17.6123 13.4449 17.6336 13.3984 17.6724L8.7232 22.6298Z" fill="#F53838"/>
</svg>
