<svg width="166" height="37" viewBox="0 0 166 37" fill="none" xmlns="http://www.w3.org/2000/svg">
<path d="M51.42 26.0916C50.18 26.0916 49.14 25.9116 48.3 25.5516C47.4733 25.1783 46.84 24.6983 46.4 24.1116C45.9733 23.5116 45.7467 22.8849 45.72 22.2316C45.72 22.1116 45.76 22.0116 45.84 21.9316C45.92 21.8516 46.02 21.8116 46.14 21.8116H47.92C48.0933 21.8116 48.22 21.8516 48.3 21.9316C48.3933 21.9983 48.4733 22.0849 48.54 22.1916C48.62 22.4449 48.7733 22.6983 49 22.9516C49.2267 23.1916 49.5333 23.3916 49.92 23.5516C50.32 23.7116 50.82 23.7916 51.42 23.7916C52.38 23.7916 53.0933 23.6316 53.56 23.3116C54.04 22.9916 54.28 22.5583 54.28 22.0116C54.28 21.6249 54.1533 21.3183 53.9 21.0916C53.6467 20.8516 53.2533 20.6383 52.72 20.4516C52.2 20.2516 51.5067 20.0449 50.64 19.8316C49.64 19.5916 48.8 19.3049 48.12 18.9716C47.4533 18.6249 46.9467 18.1916 46.6 17.6716C46.2667 17.1516 46.1 16.4916 46.1 15.6916C46.1 14.9183 46.3067 14.2316 46.72 13.6316C47.1467 13.0316 47.7467 12.5583 48.52 12.2116C49.3067 11.8649 50.24 11.6916 51.32 11.6916C52.1867 11.6916 52.9533 11.8116 53.62 12.0516C54.2867 12.2783 54.84 12.5849 55.28 12.9716C55.72 13.3449 56.0533 13.7516 56.28 14.1916C56.52 14.6183 56.6467 15.0383 56.66 15.4516C56.66 15.5583 56.62 15.6583 56.54 15.7516C56.4733 15.8316 56.3733 15.8716 56.24 15.8716H54.38C54.2733 15.8716 54.1667 15.8449 54.06 15.7916C53.9533 15.7383 53.8667 15.6383 53.8 15.4916C53.72 15.0783 53.46 14.7249 53.02 14.4316C52.58 14.1383 52.0133 13.9916 51.32 13.9916C50.6 13.9916 50.02 14.1249 49.58 14.3916C49.14 14.6583 48.92 15.0716 48.92 15.6316C48.92 16.0049 49.0267 16.3183 49.24 16.5716C49.4667 16.8116 49.82 17.0249 50.3 17.2116C50.7933 17.3983 51.44 17.5983 52.24 17.8116C53.3733 18.0649 54.3 18.3583 55.02 18.6916C55.74 19.0249 56.2667 19.4516 56.6 19.9716C56.9333 20.4783 57.1 21.1249 57.1 21.9116C57.1 22.7916 56.86 23.5449 56.38 24.1716C55.9133 24.7849 55.2533 25.2583 54.4 25.5916C53.5467 25.9249 52.5533 26.0916 51.42 26.0916ZM63.012 26.0916C62.1987 26.0916 61.492 25.9116 60.892 25.5516C60.3054 25.1783 59.852 24.6583 59.532 23.9916C59.212 23.3116 59.052 22.5116 59.052 21.5916V15.9716C59.052 15.8383 59.0987 15.7249 59.192 15.6316C59.2854 15.5383 59.3987 15.4916 59.532 15.4916H61.292C61.4387 15.4916 61.552 15.5383 61.632 15.6316C61.7254 15.7249 61.772 15.8383 61.772 15.9716V21.4716C61.772 23.1249 62.4987 23.9516 63.952 23.9516C64.6454 23.9516 65.192 23.7316 65.592 23.2916C66.0054 22.8516 66.212 22.2449 66.212 21.4716V15.9716C66.212 15.8383 66.2587 15.7249 66.352 15.6316C66.4454 15.5383 66.5587 15.4916 66.692 15.4916H68.452C68.5854 15.4916 68.6987 15.5383 68.792 15.6316C68.8854 15.7249 68.932 15.8383 68.932 15.9716V25.4116C68.932 25.5449 68.8854 25.6583 68.792 25.7516C68.6987 25.8449 68.5854 25.8916 68.452 25.8916H66.832C66.6854 25.8916 66.5654 25.8449 66.472 25.7516C66.392 25.6583 66.352 25.5449 66.352 25.4116V24.5916C65.992 25.0583 65.5454 25.4249 65.012 25.6916C64.4787 25.9583 63.812 26.0916 63.012 26.0916ZM72.0739 29.6916C71.9406 29.6916 71.8272 29.6449 71.7339 29.5516C71.6406 29.4583 71.5939 29.3449 71.5939 29.2116V15.9716C71.5939 15.8383 71.6406 15.7249 71.7339 15.6316C71.8272 15.5383 71.9406 15.4916 72.0739 15.4916H73.6539C73.8006 15.4916 73.9139 15.5383 73.9939 15.6316C74.0872 15.7249 74.1339 15.8383 74.1339 15.9716V16.7716C74.4539 16.3449 74.8739 15.9916 75.3939 15.7116C75.9139 15.4316 76.5606 15.2916 77.3339 15.2916C78.0406 15.2916 78.6539 15.4049 79.1739 15.6316C79.6939 15.8583 80.1272 16.1849 80.4739 16.6116C80.8206 17.0249 81.0872 17.5183 81.2739 18.0916C81.4606 18.6649 81.5672 19.2983 81.5939 19.9916C81.6072 20.2183 81.6139 20.4516 81.6139 20.6916C81.6139 20.9316 81.6072 21.1716 81.5939 21.4116C81.5806 22.0783 81.4806 22.6983 81.2939 23.2716C81.1072 23.8316 80.8339 24.3249 80.4739 24.7516C80.1272 25.1649 79.6939 25.4916 79.1739 25.7316C78.6539 25.9716 78.0406 26.0916 77.3339 26.0916C76.6139 26.0916 76.0006 25.9649 75.4939 25.7116C74.9872 25.4449 74.5739 25.0983 74.2539 24.6716V29.2116C74.2539 29.3449 74.2072 29.4583 74.1139 29.5516C74.0339 29.6449 73.9206 29.6916 73.7739 29.6916H72.0739ZM76.5939 23.9516C77.1672 23.9516 77.6139 23.8316 77.9339 23.5916C78.2539 23.3383 78.4806 23.0116 78.6139 22.6116C78.7606 22.2116 78.8472 21.7716 78.8739 21.2916C78.9006 20.8916 78.9006 20.4916 78.8739 20.0916C78.8472 19.6116 78.7606 19.1716 78.6139 18.7716C78.4806 18.3716 78.2539 18.0516 77.9339 17.8116C77.6139 17.5583 77.1672 17.4316 76.5939 17.4316C76.0472 17.4316 75.6006 17.5583 75.2539 17.8116C74.9206 18.0649 74.6739 18.3916 74.5139 18.7916C74.3672 19.1783 74.2806 19.5783 74.2539 19.9916C74.2406 20.2316 74.2339 20.4849 74.2339 20.7516C74.2339 21.0183 74.2406 21.2783 74.2539 21.5316C74.2672 21.9316 74.3606 22.3183 74.5339 22.6916C74.7072 23.0516 74.9606 23.3516 75.2939 23.5916C75.6272 23.8316 76.0606 23.9516 76.5939 23.9516ZM84.3591 29.6916C84.2257 29.6916 84.1124 29.6449 84.0191 29.5516C83.9257 29.4583 83.8791 29.3449 83.8791 29.2116V15.9716C83.8791 15.8383 83.9257 15.7249 84.0191 15.6316C84.1124 15.5383 84.2257 15.4916 84.3591 15.4916H85.9391C86.0857 15.4916 86.1991 15.5383 86.2791 15.6316C86.3724 15.7249 86.4191 15.8383 86.4191 15.9716V16.7716C86.7391 16.3449 87.1591 15.9916 87.6791 15.7116C88.1991 15.4316 88.8457 15.2916 89.6191 15.2916C90.3257 15.2916 90.9391 15.4049 91.4591 15.6316C91.9791 15.8583 92.4124 16.1849 92.7591 16.6116C93.1057 17.0249 93.3724 17.5183 93.5591 18.0916C93.7457 18.6649 93.8524 19.2983 93.8791 19.9916C93.8924 20.2183 93.8991 20.4516 93.8991 20.6916C93.8991 20.9316 93.8924 21.1716 93.8791 21.4116C93.8657 22.0783 93.7657 22.6983 93.5791 23.2716C93.3924 23.8316 93.1191 24.3249 92.7591 24.7516C92.4124 25.1649 91.9791 25.4916 91.4591 25.7316C90.9391 25.9716 90.3257 26.0916 89.6191 26.0916C88.8991 26.0916 88.2857 25.9649 87.7791 25.7116C87.2724 25.4449 86.8591 25.0983 86.5391 24.6716V29.2116C86.5391 29.3449 86.4924 29.4583 86.3991 29.5516C86.3191 29.6449 86.2057 29.6916 86.0591 29.6916H84.3591ZM88.8791 23.9516C89.4524 23.9516 89.8991 23.8316 90.2191 23.5916C90.5391 23.3383 90.7657 23.0116 90.8991 22.6116C91.0457 22.2116 91.1324 21.7716 91.1591 21.2916C91.1857 20.8916 91.1857 20.4916 91.1591 20.0916C91.1324 19.6116 91.0457 19.1716 90.8991 18.7716C90.7657 18.3716 90.5391 18.0516 90.2191 17.8116C89.8991 17.5583 89.4524 17.4316 88.8791 17.4316C88.3324 17.4316 87.8857 17.5583 87.5391 17.8116C87.2057 18.0649 86.9591 18.3916 86.7991 18.7916C86.6524 19.1783 86.5657 19.5783 86.5391 19.9916C86.5257 20.2316 86.5191 20.4849 86.5191 20.7516C86.5191 21.0183 86.5257 21.2783 86.5391 21.5316C86.5524 21.9316 86.6457 22.3183 86.8191 22.6916C86.9924 23.0516 87.2457 23.3516 87.5791 23.5916C87.9124 23.8316 88.3457 23.9516 88.8791 23.9516ZM100.744 26.0916C99.6776 26.0916 98.7776 25.9049 98.0442 25.5316C97.3242 25.1583 96.7709 24.6316 96.3842 23.9516C96.0109 23.2716 95.7976 22.4783 95.7442 21.5716C95.7309 21.3316 95.7242 21.0383 95.7242 20.6916C95.7242 20.3449 95.7309 20.0516 95.7442 19.8116C95.7976 18.8916 96.0176 18.0983 96.4042 17.4316C96.8042 16.7516 97.3642 16.2249 98.0842 15.8516C98.8176 15.4783 99.7042 15.2916 100.744 15.2916C101.784 15.2916 102.664 15.4783 103.384 15.8516C104.118 16.2249 104.678 16.7516 105.064 17.4316C105.464 18.0983 105.691 18.8916 105.744 19.8116C105.758 20.0516 105.764 20.3449 105.764 20.6916C105.764 21.0383 105.758 21.3316 105.744 21.5716C105.691 22.4783 105.471 23.2716 105.084 23.9516C104.711 24.6316 104.158 25.1583 103.424 25.5316C102.704 25.9049 101.811 26.0916 100.744 26.0916ZM100.744 24.1116C101.451 24.1116 101.998 23.8916 102.384 23.4516C102.771 22.9983 102.984 22.3383 103.024 21.4716C103.038 21.2716 103.044 21.0116 103.044 20.6916C103.044 20.3716 103.038 20.1116 103.024 19.9116C102.984 19.0583 102.771 18.4049 102.384 17.9516C101.998 17.4983 101.451 17.2716 100.744 17.2716C100.038 17.2716 99.4909 17.4983 99.1042 17.9516C98.7176 18.4049 98.5042 19.0583 98.4642 19.9116C98.4509 20.1116 98.4442 20.3716 98.4442 20.6916C98.4442 21.0116 98.4509 21.2716 98.4642 21.4716C98.5042 22.3383 98.7176 22.9983 99.1042 23.4516C99.4909 23.8916 100.038 24.1116 100.744 24.1116ZM108.46 25.8916C108.327 25.8916 108.213 25.8449 108.12 25.7516C108.027 25.6583 107.98 25.5449 107.98 25.4116V15.9916C107.98 15.8449 108.027 15.7249 108.12 15.6316C108.213 15.5383 108.327 15.4916 108.46 15.4916H110.08C110.213 15.4916 110.327 15.5383 110.42 15.6316C110.527 15.7249 110.58 15.8449 110.58 15.9916V16.8116C110.887 16.3849 111.28 16.0583 111.76 15.8316C112.253 15.6049 112.82 15.4916 113.46 15.4916H114.28C114.427 15.4916 114.54 15.5383 114.62 15.6316C114.713 15.7249 114.76 15.8383 114.76 15.9716V17.4116C114.76 17.5449 114.713 17.6583 114.62 17.7516C114.54 17.8449 114.427 17.8916 114.28 17.8916H112.72C112.08 17.8916 111.58 18.0716 111.22 18.4316C110.873 18.7916 110.7 19.2849 110.7 19.9116V25.4116C110.7 25.5449 110.653 25.6583 110.56 25.7516C110.467 25.8449 110.347 25.8916 110.2 25.8916H108.46ZM121.02 25.8916C120.22 25.8916 119.547 25.7516 119 25.4716C118.453 25.1916 118.047 24.7783 117.78 24.2316C117.513 23.6716 117.38 22.9783 117.38 22.1516V17.6116H115.8C115.667 17.6116 115.553 17.5649 115.46 17.4716C115.367 17.3783 115.32 17.2649 115.32 17.1316V15.9716C115.32 15.8383 115.367 15.7249 115.46 15.6316C115.553 15.5383 115.667 15.4916 115.8 15.4916H117.38V12.1716C117.38 12.0383 117.42 11.9249 117.5 11.8316C117.593 11.7383 117.713 11.6916 117.86 11.6916H119.48C119.613 11.6916 119.727 11.7383 119.82 11.8316C119.913 11.9249 119.96 12.0383 119.96 12.1716V15.4916H122.46C122.593 15.4916 122.707 15.5383 122.8 15.6316C122.893 15.7249 122.94 15.8383 122.94 15.9716V17.1316C122.94 17.2649 122.893 17.3783 122.8 17.4716C122.707 17.5649 122.593 17.6116 122.46 17.6116H119.96V21.9516C119.96 22.4983 120.053 22.9249 120.24 23.2316C120.44 23.5383 120.78 23.6916 121.26 23.6916H122.64C122.773 23.6916 122.887 23.7383 122.98 23.8316C123.073 23.9249 123.12 24.0383 123.12 24.1716V25.4116C123.12 25.5449 123.073 25.6583 122.98 25.7516C122.887 25.8449 122.773 25.8916 122.64 25.8916H121.02ZM128.974 25.8916C128.748 25.8916 128.568 25.8316 128.434 25.7116C128.301 25.5916 128.208 25.4516 128.154 25.2916L124.074 12.4916C124.048 12.4249 124.034 12.3649 124.034 12.3116C124.034 12.2049 124.074 12.1116 124.154 12.0316C124.248 11.9383 124.354 11.8916 124.474 11.8916H126.954C127.168 11.8916 127.334 11.9516 127.454 12.0716C127.574 12.1916 127.648 12.3049 127.674 12.4116L130.494 21.6516L133.334 12.4116C133.374 12.3049 133.448 12.1916 133.554 12.0716C133.674 11.9516 133.841 11.8916 134.054 11.8916H136.534C136.654 11.8916 136.754 11.9383 136.834 12.0316C136.928 12.1116 136.974 12.2049 136.974 12.3116C136.974 12.3649 136.961 12.4249 136.934 12.4916L132.854 25.2916C132.801 25.4516 132.708 25.5916 132.574 25.7116C132.454 25.8316 132.274 25.8916 132.034 25.8916H128.974ZM139.341 25.8916C139.195 25.8916 139.075 25.8449 138.981 25.7516C138.888 25.6583 138.841 25.5383 138.841 25.3916V12.3916C138.841 12.2449 138.888 12.1249 138.981 12.0316C139.075 11.9383 139.195 11.8916 139.341 11.8916H144.941C146.048 11.8916 147.008 12.0649 147.821 12.4116C148.648 12.7449 149.288 13.2516 149.741 13.9316C150.208 14.6116 150.441 15.4716 150.441 16.5116C150.441 17.5383 150.208 18.3849 149.741 19.0516C149.288 19.7183 148.648 20.2116 147.821 20.5316C147.008 20.8516 146.048 21.0116 144.941 21.0116H142.561V25.3916C142.561 25.5383 142.508 25.6583 142.401 25.7516C142.308 25.8449 142.188 25.8916 142.041 25.8916H139.341ZM142.501 18.2516H144.841C145.415 18.2516 145.868 18.1049 146.201 17.8116C146.548 17.5183 146.721 17.0716 146.721 16.4716C146.721 15.9649 146.575 15.5383 146.281 15.1916C145.988 14.8449 145.508 14.6716 144.841 14.6716H142.501V18.2516ZM152.857 25.8916C152.71 25.8916 152.59 25.8449 152.497 25.7516C152.404 25.6583 152.357 25.5383 152.357 25.3916V12.3916C152.357 12.2449 152.404 12.1249 152.497 12.0316C152.59 11.9383 152.71 11.8916 152.857 11.8916H154.977C155.204 11.8916 155.364 11.9449 155.457 12.0516C155.564 12.1449 155.63 12.2183 155.657 12.2716L160.537 19.9716V12.3916C160.537 12.2449 160.584 12.1249 160.677 12.0316C160.77 11.9383 160.89 11.8916 161.037 11.8916H163.437C163.584 11.8916 163.704 11.9383 163.797 12.0316C163.89 12.1249 163.937 12.2449 163.937 12.3916V25.3916C163.937 25.5249 163.89 25.6449 163.797 25.7516C163.704 25.8449 163.584 25.8916 163.437 25.8916H161.297C161.084 25.8916 160.924 25.8383 160.817 25.7316C160.724 25.6249 160.664 25.5516 160.637 25.5116L155.757 18.1116V25.3916C155.757 25.5383 155.71 25.6583 155.617 25.7516C155.524 25.8449 155.404 25.8916 155.257 25.8916H152.857Z" fill="#0B132A"/>
<path d="M31.1473 14.4231L31.1255 14.4014C31.1238 14.4001 31.1224 14.3985 31.1215 14.3966L17.5006 0.775391L3.87983 14.3963C3.87826 14.3979 3.8758 14.401 3.8758 14.401L3.85333 14.4228C1.77053 16.5173 0.447586 19.2479 0.0948177 22.1806C-0.25795 25.1133 0.379698 28.0798 1.90639 30.6085C3.43309 33.1373 5.76122 35.0831 8.52069 36.1366C11.2802 37.1901 14.3126 37.2911 17.136 36.4231C17.3735 36.3505 17.6275 36.3505 17.8651 36.4231C20.6882 37.2907 23.7205 37.1898 26.4798 36.1361C29.2391 35.0824 31.567 33.1367 33.0936 30.6082C34.6202 28.0796 35.2579 25.1133 34.9053 22.1808C34.5526 19.2482 33.2299 16.5176 31.1473 14.4231ZM8.7232 23.4052C8.65689 23.4715 8.6043 23.5503 8.56844 23.6368C8.53257 23.7234 8.5141 23.8162 8.51412 23.91C8.53835 26.314 9.21776 28.6658 10.4792 30.7125C10.5079 30.7589 10.5211 30.8132 10.517 30.8676C10.513 30.9219 10.4918 30.9736 10.4566 31.0153C10.4213 31.057 10.3738 31.0864 10.3209 31.0994C10.2679 31.1124 10.2122 31.1084 10.1616 31.0878C9.21332 30.6889 8.35182 30.109 7.62531 29.3807C6.13646 27.8916 5.29946 25.8724 5.2981 23.7666C5.29675 21.6609 6.13117 19.6406 7.61812 18.1497L17.5006 8.26812L27.3826 18.1497C28.8698 19.6404 29.7045 21.6607 29.703 23.7666C29.7018 25.8724 28.8647 27.8916 27.3757 29.3807C26.6492 30.109 25.7877 30.6889 24.8396 31.0878C24.7889 31.1084 24.7332 31.1124 24.6802 31.0994C24.6273 31.0864 24.5798 31.0568 24.5445 31.0153C24.5093 30.9736 24.488 30.9219 24.484 30.8674C24.4799 30.8131 24.4931 30.7587 24.5218 30.7123C25.7835 28.6658 26.4633 26.314 26.4879 23.91C26.4879 23.8162 26.4692 23.7234 26.4332 23.6367C26.3971 23.55 26.3444 23.4713 26.2779 23.405L21.6037 18.4471C21.5571 18.4083 21.4985 18.387 21.4378 18.387C21.3773 18.387 21.3186 18.4083 21.2721 18.4471C21.2255 18.4858 21.1942 18.5398 21.1833 18.5994C21.1724 18.6591 21.1828 18.7204 21.2127 18.7732C23.0281 22.0584 21.467 26.7771 18.8637 29.3807L18.85 29.3945C18.4907 29.7499 18.0056 29.9492 17.5002 29.949C16.9948 29.9488 16.5098 29.7492 16.1508 29.3936L16.1382 29.3807C13.5339 26.7771 11.9736 22.0589 13.7893 18.7739C13.8192 18.7211 13.8296 18.6598 13.8187 18.6001C13.8079 18.5405 13.7764 18.4865 13.7299 18.4478C13.6834 18.409 13.6247 18.3877 13.5642 18.3877C13.5036 18.3877 13.4449 18.409 13.3984 18.4478L8.7232 23.4052Z" fill="#F53838"/>
</svg>
